<svg width="1000" height="1000" viewBox="0 0 1000 1000" fill="#000" xmlns="http://www.w3.org/2000/svg">
<path d="M958.6 901.7H706.7L536.2 451.7L360.1 901.7H108.3L435.5 105H634.2L634.9 106.7L958.6 901.7ZM710.5 896.2H950.3L630.5 110.6H439.2L116.6 896.2H356.4L536.4 436.3L710.5 896.2Z" fill="#000"/>
<path d="M427.5 433.5C457 466.2 485.3 480.6 505.4 487.7C543.2 501.1 557.4 490.8 616.6 504.4C659.8 514.3 659.8 521.5 697.2 528C743.8 536.1 751.1 526.2 791.7 530.8C816.3 533.6 885.7 541.5 928.2 596.3C956 632.2 959.2 671.2 959.8 683.7C960.2 693.8 961.7 752.4 916 798.7C872.5 842.8 817.6 843.8 804.9 844.1C772.5 844.7 747.6 835.2 732.6 829.5C699.1 816.8 676.1 798.7 662.5 787.7C643.3 772.3 645.8 770.5 623.2 750.8C610.9 740.1 585.2 717.9 549.1 698.5C516.1 680.7 488.4 672.7 471.6 668C405 649.2 341.7 648.6 293.2 653.1C293.2 653.1 447.4 592.8 580.4 675C575.2 669 567 660.5 555.4 652.3C529 633.7 503.7 630.1 472.5 624.1C437.3 617.3 411.3 612.4 386.7 604.5C336.2 588.4 300.3 562 267.5 538C231.4 511.6 227.1 502.6 206.7 487.6C173.1 462.8 117.8 437.7 23.3999 441C32.6999 434.5 72.4999 408.1 124.7 416.7C153.4 421.5 173.8 434.9 184.5 443.1C179.6 435.5 171.7 425.4 159.5 416.7C130.4 396.1 98.1999 398.8 88.5999 400C127.8 381.5 155.3 387 166.5 390.3C190.1 397.2 206.5 413.1 238.8 444.5C258.5 463.7 256.3 464.8 273.6 480.6C296.7 501.9 314.9 518.7 341.7 527.9C354.5 532.3 379.5 538.4 414 531C402.7 531.9 376.6 532.6 348.6 518.2C312.3 499.5 297.2 468 293 458.4C305.3 469.9 324.6 484.8 351.4 493.2C384.3 503.4 393.5 492.8 430.6 501.5C472.4 511.3 478.6 528.8 514 532.1C538 534.3 558.3 528.3 571.2 523.2C558 526.2 531.3 530.3 501.5 519.6C488.8 515.1 480 509.5 476.5 507.1C442.9 484.7 431.3 448.2 427.5 433.5Z" fill="#000"/>
<path d="M427.5 433.5C457 466.2 485.3 480.6 505.4 487.7C543.2 501.1 557.4 490.8 616.6 504.4C659.8 514.3 659.8 521.5 697.2 528C743.8 536.1 751.1 526.2 791.7 530.8C816.3 533.6 885.7 541.5 928.2 596.3C956 632.2 959.2 671.2 959.8 683.7C960.2 693.8 961.7 752.4 916 798.7C872.5 842.8 817.6 843.8 804.9 844.1C772.5 844.7 747.6 835.2 732.6 829.5C699.1 816.8 676.1 798.7 662.5 787.7C643.3 772.3 645.8 770.5 623.2 750.8C610.9 740.1 585.2 717.9 549.1 698.5C516.1 680.7 488.4 672.7 471.6 668C405 649.2 341.7 648.6 293.2 653.1C293.2 653.1 447.4 592.8 580.4 675C575.2 669 567 660.5 555.4 652.3C529 633.7 503.7 630.1 472.5 624.1C437.3 617.3 411.3 612.4 386.7 604.5C336.2 588.4 300.3 562 267.5 538C231.4 511.6 227.1 502.6 206.7 487.6C173.1 462.8 117.8 437.7 23.3999 441C32.6999 434.5 72.4999 408.1 124.7 416.7C153.4 421.5 173.8 434.9 184.5 443.1C179.6 435.5 171.7 425.4 159.5 416.7C130.4 396.1 98.1999 398.8 88.5999 400C127.8 381.5 155.3 387 166.5 390.3C190.1 397.2 206.5 413.1 238.8 444.5C258.5 463.7 256.3 464.8 273.6 480.6C296.7 501.9 314.9 518.7 341.7 527.9C354.5 532.3 379.5 538.4 414 531C402.7 531.9 376.6 532.6 348.6 518.2C312.3 499.5 297.2 468 293 458.4C305.3 469.9 324.6 484.8 351.4 493.2C384.3 503.4 393.5 492.8 430.6 501.5C472.4 511.3 478.6 528.8 514 532.1C538 534.3 558.3 528.3 571.2 523.2C558 526.2 531.3 530.3 501.5 519.6C488.8 515.1 480 509.5 476.5 507.1C442.9 484.7 431.3 448.2 427.5 433.5Z" fill="#000"/>
<path opacity=".5" d="M111 896.2H356.8L534.9 441.2L707.2 896.2H953L630.9 105H436L111 896.2Z" fill="#000"/>
</svg>
