<svg width="322" height="135" viewBox="0 0 322 135" fill="none" xmlns="http://www.w3.org/2000/svg">
<path d="M132.831 1.649C102.236 6.21141 70.5673 11.3106 43.4612 27.4132C25.2116 38.1483 4.27816 56.6663 0.520885 78.6732C-4.04153 105.511 22.2594 121.345 44.5347 126.713C75.6665 134.227 108.677 135.569 140.614 133.691C173.087 131.544 205.293 125.371 236.424 115.978C260.31 108.731 285.806 100.412 304.055 82.6989C318.279 69.0116 328.209 45.6628 317.474 26.8764C305.934 6.74815 273.46 4.33277 252.795 1.91737C187.311 -5.86556 119.949 10.2371 64.9314 46.7363C61.9792 48.8834 64.663 53.7142 67.8835 51.5671C108.677 24.7294 155.643 8.89518 204.487 5.94303C228.373 4.60114 252.527 6.21141 275.876 11.3106C288.221 13.9943 302.177 16.6781 310.228 26.8764C320.158 39.2218 316.132 57.7398 307.544 69.8168C294.662 88.3348 271.85 97.9963 251.185 105.243C227.031 113.562 201.804 120.003 176.576 124.029C149.202 128.323 121.291 129.933 93.3794 128.323C67.8835 126.713 30.0424 125.102 12.5979 103.632C-10.4826 75.1843 26.0167 42.7107 49.0971 29.5602C74.593 14.7995 104.114 9.16356 132.831 2.99089C133.904 2.45413 133.636 1.649 132.831 1.649Z" fill="#134AE5"/>
</svg>
