<svg width="32" height="32" viewBox="0 0 32 32" fill="none" xmlns="http://www.w3.org/2000/svg">
<path fill-rule="evenodd" clip-rule="evenodd" d="M16 3C12.4683 3 12.0285 3.01517 10.6397 3.08017C5.91633 3.29683 3.29467 5.91633 3.078 10.6397C3.01517 12.0285 3 12.4705 3 16C3 19.5317 3.01517 19.9737 3.078 21.3603C3.29467 26.0815 5.91633 28.7053 10.6397 28.922C12.0285 28.9848 12.4683 29 16 29C19.5317 29 19.9737 28.9848 21.3625 28.922C26.0772 28.7053 28.7097 26.0858 28.922 21.3603C28.9848 19.9737 29 19.5317 29 16C29 12.4705 28.9848 12.0285 28.922 10.6397C28.7097 5.92283 26.0858 3.29467 21.3625 3.08017C19.9737 3.01517 19.5317 3 16 3ZM16 5.34467C19.471 5.34467 19.8827 5.35767 21.2542 5.4205C24.7794 5.58083 26.4217 7.25133 26.5842 10.7483C26.6449 12.1198 26.6579 12.5293 26.6579 16.0003C26.6579 19.4713 26.6449 19.883 26.5842 21.2523C26.4217 24.7472 24.7815 26.422 21.2542 26.5823C19.8827 26.643 19.4732 26.6582 16 26.6582C12.529 26.6582 12.1174 26.6452 10.748 26.5823C7.21635 26.4198 5.58052 24.7428 5.41802 21.2523C5.35735 19.883 5.34219 19.4713 5.34219 16.0003C5.34219 12.5293 5.35735 12.1177 5.41802 10.7483C5.57835 7.24917 7.22069 5.57867 10.748 5.41833C12.1174 5.3555 12.529 5.34467 16 5.34467ZM9.32455 16.0001C9.32455 12.3125 12.3145 9.32465 16 9.32465C19.6855 9.32465 22.6755 12.3146 22.6755 16.0001C22.6755 19.6878 19.6855 22.6756 16 22.6756C12.3145 22.6756 9.32455 19.6878 9.32455 16.0001ZM16 20.3336C13.6058 20.3336 11.6666 18.3944 11.6666 16.0003C11.6666 13.6083 13.6058 11.6669 16 11.6669C18.392 11.6669 20.3355 13.6061 20.3355 16.0003C20.3355 18.3944 18.392 20.3336 16 20.3336ZM21.3777 9.06208C21.3777 8.19974 22.0775 7.50208 22.9377 7.50208C23.8022 7.50208 24.4998 8.19974 24.4998 9.06208C24.4998 9.92441 23.8 10.6221 22.9377 10.6221C22.0753 10.6221 21.3777 9.92224 21.3777 9.06208Z" fill="white"/>
</svg>
