<svg width="1200" height="1200" viewBox="0 0 1200 1200" fill="none" xmlns="http://www.w3.org/2000/svg">
<g clip-path="url(#clip0_101_6)">
<rect width="1200" height="1200" fill="#25203B"/>
<ellipse cx="597.638" cy="599.888" rx="239.98" ry="239.888" fill="url(#paint0_linear_101_6)"/>
<path fill-rule="evenodd" clip-rule="evenodd" d="M461.328 402.428C463.52 402.23 465.714 402.031 467.909 401.833C530.012 396.208 592.526 390.547 624.107 402.256C668.753 418.808 652.416 471.518 626.89 528.569C622.395 538.912 617.606 549.394 612.828 559.849C590.92 607.793 569.271 655.172 577.462 685.978C584.325 712.397 614.005 726.144 643.478 739.795C655.06 745.159 666.61 750.508 676.731 756.606C697.663 769.218 712.765 785.523 718.385 807.244C682.917 827.927 641.662 839.777 597.638 839.777C465.101 839.777 357.659 732.375 357.659 599.888C357.659 518.011 398.694 445.714 461.328 402.428Z" fill="white" fill-opacity="0.15"/>
<path fill-rule="evenodd" clip-rule="evenodd" d="M419.154 439.53C462.931 441.328 505.018 444.205 528.861 457.225C566.538 477.8 559.493 525.147 545.583 575.495C543.167 584.637 540.531 593.876 537.902 603.092C525.846 645.35 513.933 687.11 524.031 716.814C532.562 742.272 557.924 758.511 583.108 774.636C593.005 780.973 602.875 787.292 611.685 794.146C626.493 805.668 638.495 819.025 646.227 834.857C630.535 838.083 614.285 839.777 597.638 839.777C465.101 839.777 357.659 732.375 357.659 599.888C357.659 538.239 380.923 482.022 419.154 439.53Z" fill="white" fill-opacity="0.15"/>
<path fill-rule="evenodd" clip-rule="evenodd" d="M387.723 483.542C409.121 489.648 428.345 496.984 441.854 507.44C473.175 531.683 474.604 574.139 471.287 618.373C470.768 626.421 470.096 634.526 469.427 642.611C466.356 679.684 463.321 716.319 475.159 745.02C485.21 769.6 506.634 788.112 527.908 806.494C536.268 813.718 544.605 820.922 552.219 828.466C554.989 831.21 557.673 834.015 560.259 836.884C445.475 818.939 357.659 719.665 357.659 599.888C357.659 557.672 368.568 518.002 387.723 483.542Z" fill="white" fill-opacity="0.15"/>
<ellipse cx="646.338" cy="617.444" rx="13.3171" ry="12.9617" fill="white" fill-opacity="0.25"/>
<ellipse cx="718.531" cy="496.585" rx="13.3171" ry="13.312" fill="white" fill-opacity="0.25"/>
<ellipse cx="745.515" cy="672.794" rx="13.6675" ry="13.6623" fill="white" fill-opacity="0.25"/>
<path d="M793.49 453.304C877.498 422.157 931.49 409.282 939.682 425.354C953.889 453.226 812.335 553.785 623.512 649.959C434.689 746.133 270.101 801.503 255.894 773.631C247.698 757.552 289.281 720.605 363.932 670.942" stroke="white" stroke-opacity="0.45" stroke-width="5" stroke-linecap="round" stroke-linejoin="round" stroke-dasharray="45 45"/>
<path d="M842.327 604.256C925.606 637.3 976.621 667.6 971.95 685.023C963.851 715.238 791.343 695.286 586.643 640.457C381.942 585.629 222.566 516.687 230.665 486.472C235.338 469.04 294.727 468.305 383.447 481.331" stroke="white" stroke-opacity="0.45" stroke-width="5" stroke-linecap="round" stroke-linejoin="round" stroke-dasharray="45 45"/>
<g clip-path="url(#clip1_101_6)">
<path d="M314.605 568.464C314.614 569.457 314.137 569.63 313.517 568.819L291.45 539.977C290.839 539.178 291.166 538.487 292.138 538.436L327.925 536.544C328.916 536.489 329.126 536.999 328.4 537.676L316.701 548.556L299.521 543.011L314.461 553.143L314.605 568.464Z" fill="white" fill-opacity="0.85"/>
</g>
<path d="M760.422 556.155C759.535 555.709 759.599 555.206 760.605 555.026L796.356 548.606C797.347 548.429 797.811 549.036 797.413 549.923L782.723 582.599C782.318 583.505 781.768 583.458 781.498 582.503L777.172 567.127L789.965 554.393L774.117 563.037L760.422 556.155Z" fill="white" fill-opacity="0.85"/>
<path d="M2033.25 186.183C2066.9 241.493 2078.97 309.189 2068.77 385.406C2058.58 461.622 2026.31 544.866 1973.82 630.384C1921.33 715.903 1849.64 802.022 1762.85 883.824C1676.05 965.625 1575.85 1041.51 1467.97 1107.14C1360.09 1172.77 1246.64 1226.86 1134.09 1266.33C1021.54 1305.8 912.105 1329.87 812.027 1337.17C711.95 1344.47 623.191 1334.85 550.819 1308.87C478.447 1282.88 423.879 1241.04 390.23 1185.73L1211.74 685.956L2033.25 186.183Z" fill="url(#paint1_radial_101_6)"/>
<path d="M-390.33 -181.677C-362.008 -239.895 -318.285 -289.916 -261.657 -328.883C-205.03 -367.851 -136.607 -395.002 -60.2951 -408.786C16.0165 -422.571 98.7225 -422.719 183.101 -409.222C267.479 -395.725 351.877 -368.848 431.475 -330.124C511.074 -291.401 584.315 -241.589 647.016 -183.534C709.718 -125.479 760.651 -60.3173 796.91 8.23078C833.168 76.7789 854.04 147.371 858.335 215.976C862.63 284.582 850.263 349.857 821.941 408.075L215.805 113.199L-390.33 -181.677Z" fill="url(#paint2_radial_101_6)"/>
</g>
<defs>
<linearGradient id="paint0_linear_101_6" x1="397.533" y1="434.968" x2="796.911" y2="791.04" gradientUnits="userSpaceOnUse">
<stop stop-color="#CF80FE"/>
<stop offset="1" stop-color="#745BCD"/>
</linearGradient>
<radialGradient id="paint1_radial_101_6" cx="0" cy="0" r="1" gradientUnits="userSpaceOnUse" gradientTransform="translate(1480.79 522.28) rotate(91.2552) scale(584.999 1045.23)">
<stop stop-color="#6755A4"/>
<stop offset="1" stop-color="#414176" stop-opacity="0"/>
</radialGradient>
<radialGradient id="paint2_radial_101_6" cx="0" cy="0" r="1" gradientUnits="userSpaceOnUse" gradientTransform="translate(17.296 16.6271) rotate(-39.9361) scale(540.168 793.498)">
<stop stop-color="#6755A4"/>
<stop offset="1" stop-color="#414176" stop-opacity="0"/>
</radialGradient>
<clipPath id="clip0_101_6">
<rect width="1200" height="1200" rx="330" fill="white"/>
</clipPath>
<clipPath id="clip1_101_6">
<rect width="43.3149" height="43.3279" fill="white" transform="matrix(-0.325266 -0.945623 0.945699 -0.325045 299.844 577.251)"/>
</clipPath>
</defs>
</svg>