<?xml version="1.0" encoding="utf-8"?>
<!-- Generator: Adobe Illustrator 25.0.0, SVG Export Plug-In . SVG Version: 6.00 Build 0)  -->
<svg version="1.1" id="Layer_1" xmlns="http://www.w3.org/2000/svg" xmlns:xlink="http://www.w3.org/1999/xlink" x="0px" y="0px"
	 viewBox="85 60 450 170" style="enable-background:new 75 60 450 170;" xml:space="preserve">
<style type="text/css">
	.st0{fill:#000;}
</style>
<g>
	<g>
		<path class="st0" d="M219.67,154.4c-18.34-0.01-48.98-0.01-66.87-0.02c-7.83,0-14.18,6.35-14.18,14.18v0
			c0,7.83,6.35,14.18,14.18,14.18l55.3,0l24.98,24.98c5.53,5.53,14.51,5.53,20.04,0l0,0c5.53-5.53,5.53-14.5,0-20.04l-7.25-7.26
			c10.32-4.39,17.38-14.7,17.26-26.01c0,0,0-9.49,0-9.49c0.31-15.27-13.13-28.49-28.33-28.33c-0.02-0.02-87.03,0.04-108.49,0.04
			c-2.62,0-4.74-2.12-4.74-4.74v0c0-2.62,2.12-4.75,4.74-4.74c13.96,0,55.27,0.02,77.28,0.02c7.83,0,14.18-6.35,14.18-14.18v0
			c0-7.83-6.35-14.18-14.18-14.18l-82,0c-3.87,0-7.53,0.76-10.99,2.28c-10.36,4.38-17.46,14.7-17.34,26.05c0,0,0,9.49,0,9.49
			c-0.31,15.27,13.13,28.49,28.33,28.33c0,0,87.03-0.01,108.51-0.01c2.61,0,4.73,2.12,4.73,4.73v0c0,2.61-2.12,4.73-4.73,4.73
			c-2.57,0-6.08,0-10.22,0"/>
		<g>
			<g>
				<g>
					<path class="st0" d="M298.6,117.37c1.15,5.06,4.78,7.28,10.61,7.28c5.81,0,8.3-2.3,8.3-5.98c0-4.1-2.43-5.88-11.04-7.88
						c-13.71-3.22-17.1-8.2-17.1-15c0-8.78,6.57-14.74,18.49-14.74c13.37,0,18.7,7.19,19.42,14.56h-10.97
						c-0.53-3.1-2.24-6.47-8.73-6.47c-4.42,0-7.09,1.83-7.09,5.4c0,3.5,2.14,4.92,10.28,6.81c14.65,3.45,17.86,8.9,17.86,16
						c0,9.2-6.96,15.51-20.27,15.51c-12.79,0-19.52-6.29-20.73-15.48H298.6z"/>
					<path class="st0" d="M334.52,132.14V78.81h10.47v53.33H334.52z"/>
					<path class="st0" d="M351.5,78.81h10.47v9.34H351.5V78.81z M351.5,94.32h10.47v37.82H351.5V94.32z"/>
					<path class="st0" d="M402.01,119.92c-1.3,6.3-5.73,13.1-17,13.1c-11.77,0-17.82-8.15-17.82-19.51
						c0-11.17,6.81-20.06,18.32-20.06c12.75,0,16.29,9.15,16.5,13.43h-10.22c-0.65-3.08-2.39-5.23-6.48-5.23
						c-4.79,0-7.5,4.2-7.5,11.53c0,8.05,2.87,11.72,7.45,11.72c3.6,0,5.52-2.12,6.46-4.97H402.01z"/>
					<path class="st0" d="M416.99,110.28c2.78-3.77,7.8-9.65,13.02-15.95h12.01l-13.18,14.28l14.43,23.53H431.4l-9.57-16.82
						l-4.84,4.69v12.14h-10.47V78.81h10.47V110.28z"/>
				</g>
			</g>
			<g>
				<g>
					<path class="st0" d="M298.27,177.22v20.16h-10.64V147h22.13c10.98,0,16.89,6.05,16.89,13.83c0,6.76-3.68,10.42-7.32,11.92
						c2.49,0.92,6.26,3.52,6.26,12.53v2.49c0,3.39,0.03,7.24,0.72,9.6h-10.32c-0.89-2.19-1.05-5.96-1.05-11.31v-0.74
						c0-5.51-1.39-8.11-9.51-8.11H298.27z M298.27,168.55h9.13c5.96,0,8.26-2.27,8.26-6.48c0-4.1-2.68-6.39-8-6.39h-9.39V168.55z"/>
					<path class="st0" d="M341.41,180.71c0.01,4.73,2.38,9.35,7.59,9.35c4.36,0,5.6-1.75,6.6-4.04h10.48
						c-1.34,4.63-5.47,12.23-17.35,12.23c-12.46,0-17.86-9.31-17.86-19.24c0-11.86,6.09-20.33,18.23-20.33
						c12.99,0,17.4,9.39,17.4,18.84c0,1.28,0,2.11-0.14,3.19H341.41z M356.01,174.28c-0.07-4.4-1.83-8.11-6.93-8.11
						c-5.02,0-7.04,3.46-7.45,8.11H356.01z"/>
					<path class="st0" d="M380.07,186.01c0.79,3.01,3.25,4.7,7.16,4.7c3.87,0,5.27-1.39,5.27-3.68c0-2.43-1.62-3.38-7.04-4.71
						c-12.32-3.04-14.34-6.85-14.34-12.19c0-5.56,3.93-11.45,15.33-11.45c11.47,0,15.35,6.26,15.68,11.39h-9.96
						c-0.34-1.4-1.27-4.04-6.19-4.04c-3.46,0-4.58,1.53-4.58,3.23c0,1.88,1.17,2.79,7.31,4.22c12.62,2.94,14.4,7.26,14.4,12.8
						c0,6.26-4.76,11.96-16.29,11.96c-11.48,0-16.22-5.54-17.05-12.25H380.07z"/>
					<path class="st0" d="M418.44,144.04v19.98c1.66-2.45,4.73-5.34,10.83-5.34c7.05,0,12.67,4.17,12.67,14.43v24.26h-10.41v-22.7
						c0-4.92-1.74-7.53-6.14-7.53c-5.82,0-6.96,4.33-6.96,10.16v20.06h-10.47v-53.33H418.44z"/>
					<path class="st0" d="M448.56,144.04h10.47v9.34h-10.47V144.04z M448.56,159.56h10.47v37.82h-10.47V159.56z"/>
					<path class="st0" d="M475.97,194.03v17.83h-10.41v-43.19c0-3.06,0-6.08-0.07-9.11h10.14c0.15,1,0.34,3.32,0.34,4.71
						c1.62-2.78,5-5.59,10.99-5.59c8.49,0,15.06,7.1,15.06,18.83c0,13.34-7.34,20.74-16.5,20.74
						C480.19,198.25,477.41,196.24,475.97,194.03z M491.4,177.92c0-6.93-2.8-10.84-7.79-10.84c-5.95,0-8.06,3.82-8.06,11.44
						c0,7.22,1.95,11.42,7.61,11.42C488.71,189.93,491.4,185.62,491.4,177.92z"/>
				</g>
			</g>
		</g>
	</g>
</g>
<g>
	<g>
		<path class="st0" d="M816.92,115.2c-23.64-0.01-63.14-0.02-86.21-0.03c-10.1,0-18.28,8.18-18.28,18.28v0
			c0,10.09,8.18,18.28,18.28,18.28l71.29,0l32.2,32.2c7.13,7.13,18.7,7.13,25.83,0v0c7.13-7.13,7.13-18.7,0-25.83l-9.35-9.35
			c13.3-5.66,22.41-18.95,22.25-33.53c0,0,0-12.23,0-12.23c0.39-19.69-16.93-36.73-36.52-36.52c-0.02-0.02-112.19,0.05-139.87,0.06
			c-3.38,0-6.12-2.74-6.12-6.12v0c0-3.38,2.74-6.12,6.12-6.12c17.99,0.01,71.25,0.02,99.62,0.03c10.1,0,18.28-8.18,18.28-18.28v0
			c0-10.09-8.18-18.28-18.28-18.28l-105.72,0c-4.99,0-9.71,0.98-14.16,2.94c-13.36,5.64-22.51,18.96-22.36,33.58
			c0,0,0,12.23,0,12.23c-0.39,19.69,16.92,36.73,36.52,36.52c0,0,112.2-0.01,139.89-0.01c3.37,0,6.1,2.73,6.1,6.1v0
			c0,3.37-2.73,6.1-6.1,6.1c-3.32,0-7.84,0-13.18,0"/>
	</g>
</g>
</svg>
