<svg width="101" height="102" viewBox="0 0 101 102" fill="none" xmlns="http://www.w3.org/2000/svg">
<path d="M35.7036 20.9377C38.3229 20.9401 40.9445 20.933 43.5637 20.9425C48.0248 26.715 52.5309 32.4519 57.0322 38.1935C57.0203 32.4424 57.0298 26.6889 57.0275 20.9377C59.7889 20.9377 62.5528 20.9377 65.319 20.9377C65.3166 31.6361 65.319 42.3345 65.319 53.0328C63.06 53.0305 60.8011 53.0352 58.5445 53.0328C58.1937 53.1232 58.0349 52.7688 57.85 52.5667C53.268 46.7537 48.679 40.9454 44.0852 35.142C44.0829 41.1048 44.0852 47.0676 44.0852 53.0328C41.2906 53.0328 38.4983 53.0328 35.7036 53.0328C35.7036 42.3345 35.7036 31.6361 35.7036 20.9377Z" fill="white"/>
<path d="M8.17165 0H92.718C96.9207 0.123681 100.635 3.66523 101 7.86324V66.1192C100.533 70.2435 96.8828 73.785 92.699 73.8136C71.2045 73.8326 49.7124 73.816 28.2202 73.8231C27.6205 73.8017 27.1773 74.2726 26.6985 74.558C17.8167 80.49 8.91121 86.3886 0.0270584 92.3181C0.0223176 64.3972 0.0152135 36.4739 0.0341764 8.553C0.00336162 4.14092 3.80068 0.223577 8.17165 0ZM35.7035 20.9377C35.7035 31.6361 35.7035 42.3345 35.7035 53.0329C38.4982 53.0329 41.2905 53.0329 44.0851 53.0329C44.0851 47.0676 44.0828 41.1048 44.0851 35.142C48.6789 40.9454 53.2679 46.7537 57.8499 52.5667C58.0347 52.7688 58.1936 53.1232 58.5444 53.0329C60.801 53.0352 63.0599 53.0305 65.3189 53.0329C65.3189 42.3345 65.3165 31.6361 65.3189 20.9377C62.5527 20.9377 59.7888 20.9377 57.0273 20.9377C57.0297 26.6889 57.0202 32.4424 57.0321 38.1935C52.5308 32.4519 48.0247 26.715 43.5636 20.9425C40.9444 20.933 38.3228 20.9401 35.7035 20.9377Z" fill="#01389F"/>
<path d="M92.6991 73.8136C96.8828 73.785 100.533 70.2435 101 66.1192V74.8982C100.737 78.3826 98.1889 81.5365 94.8467 82.5117C93.3035 82.9755 91.6798 82.8446 90.0964 82.8589C69.4718 82.8565 48.8472 82.8637 28.2226 82.8565C27.9761 82.8327 27.7557 82.8875 27.5613 83.023C18.388 89.1333 9.20518 95.2294 0.0342177 101.344C0.0247362 98.3356 0.0365811 95.3269 0.0270996 92.3181C8.91125 86.3886 17.8167 80.4899 26.6985 74.558C27.1773 74.2726 27.6206 73.8017 28.2203 73.8231C49.7124 73.8159 71.2046 73.8326 92.6991 73.8136Z" fill="#012D84"/>
</svg>
