<svg width="32" height="32" viewBox="0 0 32 32" fill="none" xmlns="http://www.w3.org/2000/svg">
<path d="M28.8382 8.48693C27.8887 8.90895 26.8659 9.19317 25.7936 9.32236C26.8896 8.66564 27.7272 7.62781 28.1255 6.38973C27.1006 6.99692 25.9659 7.43833 24.7579 7.67518C23.7933 6.6438 22.4131 6 20.8908 6C17.4672 6 14.9523 9.19317 15.7253 12.5091C11.3221 12.2873 7.41403 10.1772 4.80006 6.97109C3.41126 9.35251 4.0809 12.4703 6.44079 14.0486C5.57305 14.0206 4.757 13.7816 4.04214 13.3854C3.98401 15.84 5.74531 18.1375 8.29468 18.65C7.54968 18.8524 6.73147 18.8997 5.90034 18.7404C6.57429 20.8462 8.53584 22.3771 10.8527 22.4202C8.61981 24.1686 5.81421 24.9502 3 24.6186C5.34697 26.1237 8.13104 27 11.124 27C20.9683 27 26.5278 18.6866 26.1919 11.2301C27.2298 10.4851 28.1277 9.5506 28.8382 8.48693V8.48693Z" fill="white"/>
</svg>
